<svg width="430" height="430" viewBox="0 0 430 430" fill="none" xmlns="http://www.w3.org/2000/svg">
<path d="M67.8179 0H66.9579V116.559H67.8179V0Z" fill="#FEF7F7"/>
<path d="M107.862 155.574L104.607 162.73H30.1602L26.9146 155.574L58.609 133.635H76.1676L107.862 155.574Z" fill="#EBEBEB"/>
<path d="M78.3676 112.499L76.1677 133.635H58.6091L56.41 112.499H78.3676Z" fill="#DBDBDB"/>
<path d="M107.859 155.577L104.604 162.734H30.1568L26.9111 155.577H107.859Z" fill="#DBDBDB"/>
<path d="M154.723 0H153.863V93.4717H154.723V0Z" fill="#FEF7F7"/>
<path d="M194.767 132.486L191.512 139.642H117.065L113.819 132.486L145.514 110.549H163.072L194.767 132.486Z" fill="#EBEBEB"/>
<path d="M165.271 89.4116L163.072 110.549H145.514L143.314 89.4116H165.271Z" fill="#DBDBDB"/>
<path d="M194.763 132.49L191.508 139.646H117.061L113.816 132.49H194.763Z" fill="#DBDBDB"/>
<path d="M41.7091 192.076L33.2218 205.758L37.4375 208.369C38.6673 209.131 39.3106 210.528 39.1884 211.969C39.1222 212.748 39.0964 213.533 39.1128 214.318C39.142 215.778 38.4033 217.146 37.1158 217.836L32.772 220.166L40.3847 234.361L44.7277 232.032C45.9764 231.362 47.5021 231.431 48.6631 232.245C49.3657 232.737 50.0932 233.188 50.8432 233.595C52.0919 234.272 52.8366 235.61 52.7919 237.03L52.6354 241.957L68.7294 242.457L68.8782 237.512C68.9212 236.085 69.77 234.814 71.0626 234.209C71.4393 234.033 71.8117 233.845 72.1815 233.647C72.5504 233.449 72.9133 233.242 73.2677 233.026C74.4811 232.288 76.0016 232.282 77.2099 233.031L81.4308 235.645L89.9181 221.962L85.6912 219.339C84.4649 218.577 83.8233 217.182 83.948 215.743C84.0151 214.965 84.0417 214.183 84.0271 213.399C83.9996 211.939 84.7375 210.574 86.024 209.885L90.3688 207.555L82.756 193.361L78.4113 195.69C77.1256 196.38 75.5793 196.24 74.3796 195.41C73.7346 194.964 73.069 194.553 72.3844 194.179C71.1177 193.487 70.3084 192.182 70.3531 190.738L70.5062 185.764L54.413 185.264L54.2591 190.204C54.2144 191.648 53.3294 192.905 52.0239 193.522C51.6653 193.692 51.3093 193.871 50.955 194.061C50.6049 194.249 50.2601 194.445 49.923 194.65C48.6811 195.4 47.1391 195.441 45.9068 194.676L41.7091 192.076ZM53.8721 203.146C60.9636 198.106 70.7814 201.069 73.9006 209.19C76.024 214.718 74.0941 221.141 69.2678 224.574C62.1788 229.617 52.3353 226.646 49.2203 218.524C47.0996 212.995 49.0449 206.576 53.8721 203.146Z" fill="#EBEBEB"/>
<path d="M394.712 58.4756C393.972 58.0491 393.564 57.2364 393.608 56.3832C393.62 56.1519 393.626 55.9188 393.626 55.6858C393.626 55.4493 393.62 55.2154 393.608 54.9832C393.565 54.1335 393.97 53.3234 394.708 52.8985L397.229 51.4443L392.492 43.2338L389.972 44.6864C389.232 45.1129 388.323 45.0708 387.609 44.6038C387.216 44.3467 386.808 44.1102 386.387 43.896C385.629 43.5099 385.142 42.7445 385.142 41.894V38.9915H375.661V41.894C375.661 42.7445 375.174 43.5099 374.416 43.896C373.996 44.1102 373.587 44.3467 373.194 44.6038C372.48 45.0708 371.571 45.1129 370.831 44.6864L368.311 43.2338L363.574 51.4443L366.105 52.9063C366.842 53.3311 367.246 54.1395 367.203 54.9883C367.191 55.2197 367.185 55.4527 367.185 55.6858C367.185 55.9197 367.191 56.1519 367.203 56.3832C367.247 57.2364 366.839 58.0482 366.099 58.4739L363.575 59.9273L368.312 68.1368L370.825 66.6852C371.564 66.2578 372.473 66.299 373.187 66.7652C373.582 67.0232 373.992 67.2597 374.416 67.4747C375.174 67.8599 375.662 68.6262 375.662 69.4776V72.3792H385.143V69.4776C385.143 68.6262 385.631 67.8599 386.389 67.4747C386.812 67.2597 387.222 67.0232 387.617 66.7652C388.331 66.299 389.24 66.2578 389.979 66.6852L392.491 68.1368L397.228 59.9273L394.712 58.4756ZM380.405 63.4533C376.117 63.4533 372.636 59.9729 372.636 55.6849C372.636 51.397 376.117 47.9243 380.405 47.9243C384.693 47.9243 388.165 51.397 388.165 55.6849C388.166 59.9729 384.693 63.4533 380.405 63.4533Z" fill="#EBEBEB"/>
<path d="M181.388 274.22C180.708 273.839 180.283 273.074 180.273 272.297C180.271 271.91 180.303 271.524 180.282 271.138C180.272 270.755 180.234 270.358 180.347 269.981C180.447 269.604 180.644 269.252 180.919 268.974C181.192 268.687 181.555 268.525 181.882 268.325L183.887 267.158L183.874 267.206L179.099 259.018L179.208 259.047L176.573 260.595C176.098 260.837 175.536 260.906 175.013 260.79C174.474 260.681 174.044 260.341 173.611 260.118L172.951 259.746C172.713 259.619 172.492 259.457 172.307 259.259C171.933 258.866 171.696 258.341 171.655 257.794L171.62 254.735L171.819 254.934L162.337 255.027L162.629 254.735L162.653 257.805C162.62 258.387 162.377 258.955 161.983 259.383C161.788 259.6 161.553 259.778 161.298 259.919L160.652 260.301L160.006 260.686C159.758 260.841 159.484 260.959 159.196 261.023C158.623 261.158 158 261.09 157.467 260.827L154.797 259.308L155.319 259.168L150.613 267.395L150.46 266.824L153.124 268.357C153.635 268.691 154.012 269.216 154.183 269.791C154.273 270.079 154.308 270.38 154.3 270.678L154.279 271.43L154.294 272.181C154.299 272.478 154.263 272.778 154.172 273.064C153.998 273.636 153.621 274.152 153.114 274.484L150.447 276.013L150.592 275.473L155.291 283.705L154.811 283.576L157.487 282.071C158.011 281.818 158.622 281.756 159.182 281.892C159.463 281.956 159.729 282.074 159.971 282.225L160.619 282.61L161.267 282.992C161.517 283.13 161.746 283.305 161.937 283.516C162.323 283.935 162.56 284.489 162.592 285.057L162.568 288.122L162.336 287.891L171.818 287.985L171.68 288.122L171.715 285.068C171.755 284.535 171.985 284.024 172.351 283.641C172.719 283.244 173.221 283.055 173.642 282.795C174.083 282.568 174.505 282.238 175.026 282.127C175.536 282.01 176.084 282.074 176.552 282.307L179.191 283.84L179.126 283.857L183.895 275.665L183.899 275.681L181.388 274.22ZM181.388 274.22L183.91 275.663L183.92 275.668L183.914 275.677L179.209 283.905L179.185 283.946L179.143 283.922L176.5 282.414C176.055 282.196 175.536 282.14 175.056 282.255C174.57 282.358 174.172 282.685 173.72 282.93C173.286 283.208 172.81 283.401 172.488 283.768C172.158 284.128 171.958 284.6 171.931 285.082L171.956 288.123L171.957 288.26L171.818 288.262L162.336 288.355L162.107 288.358L162.105 288.124L162.07 285.093C162.036 284.646 161.842 284.217 161.533 283.895C161.381 283.731 161.197 283.599 161 283.495L160.327 283.116L159.656 282.736C159.466 282.623 159.26 282.536 159.044 282.492C158.614 282.396 158.157 282.454 157.77 282.651L155.162 284.187L154.86 284.365L154.681 284.059L149.907 275.871L149.709 275.531L150.052 275.331L152.664 273.808C153.007 273.58 153.262 273.226 153.381 272.826C153.443 272.626 153.467 272.414 153.462 272.205L153.44 271.432L153.457 270.66C153.46 270.45 153.434 270.24 153.371 270.043C153.249 269.645 152.991 269.3 152.651 269.078L150.041 267.551L149.679 267.34L149.888 266.98L154.656 258.789L154.849 258.458L155.178 258.649L157.795 260.166C158.172 260.356 158.617 260.41 159.034 260.315C159.243 260.27 159.443 260.186 159.628 260.077L160.299 259.695L160.972 259.315C161.163 259.213 161.341 259.084 161.489 258.926C161.789 258.613 161.977 258.197 162.01 257.763L162.045 254.736L162.048 254.442L162.336 254.445L171.818 254.538L172.018 254.539L172.016 254.736L171.991 257.773C172.017 258.242 172.211 258.7 172.531 259.05C172.841 259.405 173.308 259.596 173.749 259.878C174.208 260.128 174.598 260.448 175.068 260.548C175.535 260.662 176.041 260.61 176.475 260.399L179.127 258.91L179.196 258.871L179.235 258.939L183.934 267.171L183.952 267.202L183.921 267.22L181.907 268.372C181.576 268.57 181.216 268.728 180.948 269.006C180.677 269.276 180.481 269.62 180.38 269.99C180.265 270.362 180.301 270.751 180.307 271.138C180.326 271.525 180.291 271.913 180.29 272.298C180.295 273.068 180.711 273.833 181.388 274.22Z" fill="#EBEBEB"/>
<path d="M167.081 279.198C165.045 279.212 163.022 278.391 161.548 276.966C160.062 275.553 159.144 273.529 159.099 271.435C159.038 269.346 159.842 267.218 161.326 265.684C162.8 264.141 164.928 263.239 167.077 263.24C169.224 263.237 171.355 264.134 172.831 265.677C174.317 267.211 175.118 269.34 175.059 271.43C175.013 273.524 174.098 275.55 172.614 276.964C171.141 278.391 169.116 279.212 167.081 279.198ZM167.081 279.198C169.117 279.198 171.132 278.344 172.527 276.879C173.93 275.421 174.685 273.408 174.626 271.43C174.58 269.447 173.711 267.537 172.305 266.202C170.91 264.856 169.001 264.085 167.077 264.098C165.152 264.087 163.242 264.858 161.847 266.205C160.439 267.539 159.571 269.451 159.527 271.434C159.469 273.412 160.228 275.425 161.633 276.88C163.029 278.345 165.044 279.198 167.081 279.198Z" fill="#EBEBEB"/>
<path d="M26.4562 376.478L73.5919 376.269L120.728 376.192L215 376.049L309.272 376.192L356.408 376.267L403.544 376.478L356.408 376.688L309.272 376.763L215 376.907L120.728 376.763L73.5919 376.687L26.4562 376.478Z" fill="#1E2223"/>
<path d="M395.836 77.406H253.251V221.521H395.836V77.406Z" fill="#EBEBEB"/>
<path d="M318.811 68.7132C323.568 63.1335 331.69 61.7876 339.587 63.3786C347.485 64.9696 356.903 68.9488 357.776 82.124C358.485 92.8207 355.169 103.255 355.223 115.188C355.277 127.122 368.733 156.203 347.111 170.39C327.69 183.135 288.323 171.432 287.112 145.196C286.152 124.398 310.821 105.171 313.422 96.9349C316.022 88.6995 313.598 74.8295 318.811 68.7132Z" fill="#1E2223"/>
<path d="M315.261 80.4521C315.111 86.4042 314.256 92.4225 311.784 98.0443C311.176 99.4452 310.31 100.804 309.335 101.991C308.375 103.193 307.36 104.323 306.351 105.45C304.306 107.678 302.281 109.891 300.372 112.19C296.54 116.762 293.202 121.72 290.862 127.141C288.521 132.555 287.267 138.417 287.088 144.375C286.82 141.4 286.952 138.393 287.354 135.415C287.803 132.443 288.59 129.515 289.647 126.68C291.754 120.989 295.169 115.832 299.037 111.153C300.989 108.82 303.067 106.6 305.125 104.398C307.189 102.183 309.281 100.085 310.563 97.4827C311.912 94.8941 312.828 92.0596 313.547 89.194C314.327 86.3328 314.841 83.4028 315.261 80.4521Z" fill="#1E2223"/>
<path d="M357.219 91.1118C357.069 97.1834 356.688 103.243 356.851 109.271C356.964 112.282 357.128 115.286 357.607 118.241C358.052 121.161 358.926 124.088 359.658 127.048C360.381 130.012 361.043 133.007 361.526 136.037C361.96 139.075 362.221 142.152 362.112 145.232C361.956 148.312 361.423 151.376 360.406 154.298C359.251 157.179 357.531 159.809 355.341 161.985C357.237 159.56 358.751 156.919 359.608 154.041C360.43 151.164 360.799 148.19 360.795 145.204C360.702 139.221 359.483 133.297 357.993 127.426C357.301 124.476 356.424 121.548 356.005 118.449C355.611 115.392 355.459 112.325 355.539 109.272C355.65 103.161 356.365 97.1241 357.219 91.1118Z" fill="#1E2223"/>
<path d="M325.97 142.162C306.157 163.942 290.055 174.399 274.145 174.399C259.012 174.399 226.693 137.67 224.321 132.824C222.277 128.649 248.809 105.784 252.887 108.624C259.726 113.389 281.835 140.97 284.171 141.104C286.604 141.233 295.124 135.54 315.875 125.82C328.453 119.928 339.694 127.077 325.97 142.162Z" fill="#EB9481"/>
<path d="M227.366 136.45C224.431 133.284 212.26 117.586 209.849 112.46C207.44 107.333 201.574 92.0794 205.312 89.8357C209.051 87.5919 211.125 91.9203 211.125 91.9203C211.125 91.9203 209.668 85.0868 213.637 83.1707C217.606 81.2546 220.611 88.095 220.611 88.095C220.611 88.095 219.628 80.9682 223.723 79.3402C227.818 77.7123 229.689 85.0962 229.689 85.0962C229.689 85.0962 228.485 78.6222 232.424 78.7004C237.161 78.795 238.033 90.9812 241.117 96.4405C241.818 97.6806 257.106 120.558 257.106 120.558L227.366 136.45Z" fill="#EB9481"/>
<path d="M229.515 84.4651C230.177 93.4254 232.016 97.231 237.276 104.342C237.379 104.481 237.195 104.666 237.074 104.53C231.29 98.035 228.295 93.594 229.079 84.4746C229.118 84.0291 229.484 84.0385 229.515 84.4651Z" fill="#1E2223"/>
<path d="M220.572 87.3815C222.073 96.6273 224.031 100.773 228.991 108.626C229.062 108.737 228.881 108.868 228.8 108.761C223.29 101.464 220.403 96.9653 220.117 87.5294C220.104 87.1037 220.503 86.9592 220.572 87.3815Z" fill="#1E2223"/>
<path d="M211.39 92.3109C213.488 101.159 215.44 105.796 221.235 112.801C221.372 112.966 221.144 113.181 220.991 113.029C214.388 106.46 211.909 100.691 211.128 92.4029C211.075 91.8387 211.258 91.7545 211.39 92.3109Z" fill="#1E2223"/>
<path d="M263.918 122.701C263.918 122.701 263.721 111.446 262.543 106.52C261.364 101.594 250.219 84.8528 246.467 87.0553C241.621 89.8984 246.152 100.83 249.071 105.894C249.071 105.894 237.857 112.461 239.411 121.01C240.965 129.559 263.918 122.701 263.918 122.701Z" fill="#EB9481"/>
<path d="M245.392 88.2731C242.844 94.0523 247.104 100.453 249.568 105.577C249.755 105.967 249.508 106.255 249.182 106.339C244.666 109.405 239.188 115.045 239.119 120.806C239.117 120.975 238.877 120.995 238.856 120.825C238.09 114.636 243.021 108.655 248.182 105.614C245.573 100.398 241.583 93.7917 245.337 88.2447C245.358 88.2146 245.408 88.2361 245.392 88.2731Z" fill="#1E2223"/>
<path d="M291.836 134.768L307.727 164.423C307.727 164.423 329.279 143.497 332.716 134.768C336.152 126.04 332.45 119.706 317.116 124.378C301.783 129.048 291.836 134.768 291.836 134.768Z" fill="#0768E7"/>
<path d="M311.401 158.228C310.612 156.621 309.926 154.959 309.111 153.361C308.301 151.77 307.473 150.185 306.623 148.616C304.907 145.448 303.193 142.281 301.393 139.159C300.38 137.402 299.317 135.664 298.209 133.966C298.16 133.89 298.017 133.944 298.057 134.035C300.972 140.559 304.508 146.812 308.034 153.022C309.056 154.821 310.222 156.529 311.286 158.299C311.331 158.374 311.438 158.305 311.401 158.228Z" fill="#1E2223"/>
<path d="M332.717 134.771C329.277 143.5 307.725 164.423 307.725 164.423L297.018 144.446L332.338 124.915C334.368 127.065 334.342 130.651 332.717 134.771Z" fill="#1E2223"/>
<path d="M295.456 184.694C295.456 184.694 286.713 205.609 289.805 221.521H386.098C382.968 178.266 361.407 141.097 348.674 129.071C338.399 119.365 327.589 120.233 320.07 125.2C318.292 126.374 298.746 153.39 296.63 157.666C288.281 174.53 295.456 184.694 295.456 184.694Z" fill="#0768E7"/>
<path d="M320.743 123.926C320.743 123.926 314.701 141.235 318.215 142.14C326.904 144.376 338.557 130.192 339.253 128.753C339.427 128.384 340.195 118.686 340.772 111.145C341.144 106.295 341.431 102.336 341.431 102.336L319.997 109.682L320.687 122.974L320.743 123.926Z" fill="#EB9481"/>
<path d="M319.998 109.681L320.688 122.973C325.049 122.364 334.635 119.993 340.772 111.144C341.144 106.294 341.431 102.335 341.431 102.335L338.744 103.163L319.998 109.681Z" fill="#1E2223"/>
<path d="M304.033 91.0836C303.782 97.832 304.451 103.294 306.095 106.92C310.12 115.796 318.518 117.58 322.082 117.709C324.645 117.802 332.09 117.12 337.462 113.029C341.641 109.847 344.162 104.107 345.591 94.0196C348.857 70.9622 338.311 63.2024 327.912 62.2745C317.512 61.3474 304.9 67.812 304.033 91.0836Z" fill="#EB9481"/>
<path d="M309.995 85.9356C310.54 85.8659 311.032 85.7103 311.564 85.5847C312.165 85.4437 312.658 85.3929 313.097 84.9216C313.332 84.6688 313.308 84.1623 313.084 83.9103C312.562 83.3238 311.784 83.3143 311.053 83.4545C310.261 83.6067 309.69 83.9275 309.172 84.5441C308.67 85.1435 309.275 86.0276 309.995 85.9356Z" fill="#1E2223"/>
<path d="M325.191 86.5152C324.646 86.4413 324.156 86.2822 323.623 86.154C323.023 86.0087 322.531 85.9554 322.095 85.4806C321.861 85.2261 321.889 84.7195 322.116 84.4693C322.641 83.8862 323.42 83.881 324.149 84.0264C324.941 84.1838 325.511 84.508 326.023 85.1289C326.52 85.7309 325.91 86.6115 325.191 86.5152Z" fill="#1E2223"/>
<path d="M321.394 92.3271C321.41 92.2677 321.514 92.4079 321.509 92.4733C321.383 94.0548 321.503 95.8866 322.911 96.4817C322.955 96.4998 322.946 96.5798 322.894 96.5694C321.157 96.2383 321.02 93.8045 321.394 92.3271Z" fill="#1E2223"/>
<path d="M322.888 90.7405C325.445 90.6699 325.397 95.7887 323.029 95.854C320.697 95.9185 320.745 90.7998 322.888 90.7405Z" fill="#1E2223"/>
<path d="M323.891 91.0208C324.335 91.314 324.769 91.8292 325.307 91.8876C325.931 91.9547 326.406 91.4232 326.818 90.9115C326.861 90.8582 326.905 90.9038 326.905 90.9717C326.911 91.953 326.524 92.9549 325.471 93.0916C324.511 93.2163 323.83 92.3417 323.594 91.3536C323.55 91.1704 323.712 90.9021 323.891 91.0208Z" fill="#1E2223"/>
<path d="M312.919 91.6607C312.907 91.5996 312.795 91.7355 312.797 91.8008C312.845 93.3858 312.632 95.2107 311.198 95.7353C311.153 95.7517 311.157 95.8308 311.211 95.8239C312.962 95.5797 313.219 93.1545 312.919 91.6607Z" fill="#1E2223"/>
<path d="M311.506 90.0026C308.956 89.8057 308.749 94.9201 311.111 95.1024C313.436 95.2822 313.643 90.1677 311.506 90.0026Z" fill="#1E2223"/>
<path d="M310.426 90.2958C310.01 90.5503 309.591 91.0268 309.106 91.0388C308.546 91.0526 308.154 90.4833 307.818 89.938C307.783 89.8821 307.742 89.9234 307.736 89.9905C307.67 90.9666 307.952 91.9986 308.884 92.2239C309.733 92.4303 310.396 91.6167 310.669 90.6518C310.72 90.4738 310.592 90.1934 310.426 90.2958Z" fill="#1E2223"/>
<path d="M321.234 104.644C320.868 105.028 320.508 105.553 319.935 105.623C319.385 105.689 318.73 105.464 318.217 105.286C318.166 105.268 318.117 105.323 318.152 105.369C318.585 105.962 319.465 106.312 320.194 106.157C320.907 106.005 321.239 105.372 321.39 104.71C321.41 104.617 321.287 104.588 321.234 104.644Z" fill="#1E2223"/>
<path d="M314.726 98.7754C314.726 98.7754 314.35 101.136 314.326 102.253C314.324 102.358 314.593 102.413 314.972 102.443C314.99 102.449 315 102.457 315.015 102.446C316.981 102.795 318.981 102.155 320.213 100.571C320.292 100.464 320.153 100.346 320.05 100.413C318.555 101.463 316.922 101.708 315.173 101.7C315.101 101.389 315.953 97.6789 315.777 97.6617C315.167 97.5963 313.956 97.9867 313.228 98.1828C313.87 93.2421 315.299 88.445 315.864 83.5164C315.881 83.3401 315.629 83.2825 315.574 83.4381C313.721 88.3599 312.858 94.0299 312.063 99.1142C311.959 99.7463 314.276 98.956 314.726 98.7754Z" fill="#1E2223"/>
<path d="M315.725 101.859C315.725 101.859 316.608 103.267 317.922 103.852C318.406 104.07 318.937 104.181 319.51 104.075C320.687 103.861 320.798 102.804 320.657 101.882C320.543 101.123 320.248 100.454 320.248 100.454C320.248 100.454 318.44 101.901 315.725 101.859Z" fill="#1E2223"/>
<path d="M317.922 103.852C318.406 104.069 318.937 104.181 319.51 104.075C320.687 103.86 320.798 102.804 320.657 101.882C319.41 101.913 318.12 102.658 317.922 103.852Z" fill="#FF98B9"/>
<path d="M345.167 91.9522C342.633 92.0321 335.437 85.6948 334.126 73.5404C334.126 73.5404 336.058 84.3738 337.025 85.9003C337.993 87.4268 333.001 82.3322 331.806 72.5437C331.806 72.5437 326.727 76.9632 322.21 78.6858C317.693 80.4075 314.852 80.6225 314.491 80.3172C314.129 80.0119 320.755 77.241 322.405 74.9457C322.405 74.9457 310.597 81.8024 304.952 82.7545C304.299 82.8645 305.401 72.7045 313.665 66.1659C321.929 59.6265 333.295 61.2639 337.368 64.5379C337.368 64.5379 341.821 64.7624 347.19 70.828C352.56 76.8927 347.897 91.8662 345.167 91.9522Z" fill="#1E2223"/>
<path d="M341.825 95.6691C341.825 95.6691 346.543 88.1578 349.927 89.8056C353.31 91.4534 350.013 102.166 346.216 103.796C342.42 105.427 340.841 101.942 340.841 101.942L341.825 95.6691Z" fill="#EB9481"/>
<path d="M348.905 92.8534C348.967 92.8448 348.984 92.9316 348.931 92.9557C346.274 94.1881 344.97 96.7733 344.099 99.4298C344.857 98.3866 345.926 97.7829 347.319 98.6756C347.392 98.722 347.33 98.8364 347.252 98.8244C346.13 98.6412 345.338 98.8734 344.631 99.7996C344.131 100.456 343.807 101.27 343.462 102.016C343.347 102.265 342.903 102.156 342.982 101.873C342.988 101.852 342.995 101.83 343.001 101.809C342.762 98.3557 345.21 93.3849 348.905 92.8534Z" fill="#1E2223"/>
<path d="M356.171 133.789C365.7 144.788 392.412 184.609 386.218 195.368C380.276 205.691 366.803 208.591 359.04 194.733C353.481 184.812 344.074 155.232 341.745 141.049C339.856 129.549 347.361 123.619 356.171 133.789Z" fill="#EB9481"/>
<path d="M347.267 169.046L378.845 157.437C378.845 157.437 361.122 133.182 352.957 128.563C344.792 123.945 338.005 126.73 340.496 142.565C342.988 158.4 347.267 169.046 347.267 169.046Z" fill="#0768E7"/>
<path d="M373.222 152.937C371.521 153.495 369.779 153.943 368.083 154.527C366.396 155.107 364.711 155.707 363.04 156.33C359.663 157.588 356.289 158.846 352.947 160.193C351.066 160.952 349.197 161.763 347.36 162.623C347.278 162.662 347.312 162.811 347.406 162.783C354.273 160.805 360.958 158.174 367.597 155.547C369.521 154.785 371.375 153.868 373.275 153.06C373.357 153.026 373.303 152.911 373.222 152.937Z" fill="#1E2223"/>
<path d="M349.046 168.303C348.424 168.416 347.814 168.653 347.216 168.867C346.349 167.002 344.322 158.798 343.848 156.695C342.902 152.493 342.112 148.256 341.134 144.062C341.105 143.943 340.901 143.972 340.917 144.097C341.214 146.422 341.574 148.742 341.982 151.055C341.551 149.952 341.145 148.839 340.781 147.717C340.761 147.655 340.667 147.684 340.685 147.746C341.078 149.155 341.566 150.517 342.129 151.856C342.464 156.146 346.375 169.823 346.488 169.771C347.121 169.48 348.521 168.813 349.101 168.425C349.169 168.38 349.12 168.289 349.046 168.303Z" fill="#1E2223"/>
<path d="M333.428 87.3495L324.444 125.715C324.055 126.842 324.633 127.744 325.734 127.726L342.891 131.22C343.992 131.202 345.203 130.27 345.592 129.142L354.576 90.7766C354.966 89.6465 354.387 88.747 353.287 88.7659L336.13 85.2717C335.028 85.2898 333.818 86.2194 333.428 87.3495Z" fill="#A6A6A6"/>
<path d="M334.9 87.5653L325.916 125.931C325.526 127.058 326.105 127.96 327.207 127.941L344.364 131.436C345.465 131.418 346.675 130.485 347.064 129.358L356.049 90.9924C356.438 89.8624 355.859 88.9628 354.759 88.9817L337.602 85.4875C336.5 85.5065 335.29 86.4361 334.9 87.5653Z" fill="#DBDBDB"/>
<path d="M340.335 89.2208C340.33 90.1461 339.575 90.8917 338.651 90.8874C337.725 90.8823 336.98 90.1289 336.984 89.2036C336.989 88.2782 337.743 87.5326 338.668 87.5369C339.593 87.5412 340.339 88.2954 340.335 89.2208Z" fill="#1E2223"/>
<path d="M363.626 198.204C369.208 208.559 383.984 202.644 386.218 195.368C391.463 178.294 388.209 149.912 385.081 134.068C384.074 128.969 349.434 134.022 349.637 139.575C349.883 146.24 352.684 177.905 363.626 198.204Z" fill="#EB9481"/>
<path d="M384.699 141.639C384.699 141.639 387.634 130.676 385.001 118.751C383.181 110.504 377.219 93.0057 353.258 85.1789C347.575 83.3221 338.16 84.7084 346.341 91.1111C352.152 95.6597 357.211 96.788 360.109 100.049C360.109 100.049 348.343 103.233 346.706 108.999C345.975 111.576 344.142 118.656 343.501 124.372C343.501 124.372 344.709 124.846 346.325 125.229C346.325 125.229 345.174 132.282 349.637 139.575L384.699 141.639Z" fill="#EB9481"/>
<path d="M382.007 111.159C378.446 108.53 370.805 103.086 363.005 100.807C354.342 98.275 336.97 95.7319 335.167 102.147C333.845 106.85 340.391 108.404 340.391 108.404C340.391 108.404 332.989 108.867 332.725 113.377C332.483 117.486 337.62 118.385 337.62 118.385C337.62 118.385 333.178 119.438 333.708 123.441C334.346 128.257 343.549 125.261 348.409 129.581C349.501 130.55 382.007 111.159 382.007 111.159Z" fill="#EB9481"/>
<path d="M361.856 110.406C358.102 108.483 348.455 106.304 340.525 108.271C340.345 108.315 340.282 108.475 340.455 108.469C349.646 108.158 358.228 109.641 361.833 110.488C361.88 110.499 361.898 110.428 361.856 110.406Z" fill="#1E2223"/>
<path d="M359.046 119.077C355.636 117.751 345.592 115.95 337.625 118.218C337.447 118.269 337.394 118.433 337.567 118.42C347.156 117.7 355.379 118.53 359.028 119.161C359.076 119.169 359.09 119.095 359.046 119.077Z" fill="#1E2223"/>
<path d="M360.46 191.013C360.205 190.175 359.95 189.339 359.674 188.509C359.112 186.815 358.617 185.098 358.117 183.386C357.105 179.925 356.131 176.454 355.282 172.95C353.588 165.954 352.289 158.864 351.418 151.719C351.178 149.744 350.978 147.765 350.758 145.789C350.535 143.797 350.472 141.754 350.101 139.785C350.081 139.679 349.095 138.169 348.696 137.42C348.284 136.643 347.934 135.837 347.623 135.014C346.98 133.315 346.546 131.589 346.321 129.783C346.313 129.715 346.217 129.716 346.214 129.785C346.113 131.622 346.345 134.031 346.97 135.768C347.548 137.378 348.358 138.906 349.637 140.082C349.608 140.346 349.69 143.509 349.795 145.308C349.898 147.09 350.062 148.866 350.262 150.64C350.662 154.202 351.164 157.753 351.789 161.281C353.05 168.404 354.71 175.485 356.907 182.379C356.943 182.492 356.983 182.602 357.02 182.714C357.012 182.972 357.002 183.23 357.002 183.489C357.002 184.124 357.078 184.764 357.157 185.394C357.315 186.657 357.665 187.865 358.075 189.067C358.104 189.153 358.235 189.114 358.21 189.026C357.862 187.796 357.732 186.508 357.59 185.242C357.541 184.806 357.486 184.37 357.431 183.934C357.907 185.33 358.401 186.72 358.896 188.111C359.236 189.068 359.596 190.009 359.99 190.945C360.372 191.852 360.693 192.799 361.157 193.666C361.195 193.736 361.295 193.682 361.278 193.611C361.068 192.73 360.724 191.881 360.46 191.013Z" fill="#1E2223"/>
<path d="M253.251 221.522V198.399L226.981 221.522H253.251Z" fill="#EBEBEB"/>
<path d="M118.228 270.526C125.79 303.457 141.448 342.931 148.129 349.337C156.579 357.44 212.505 372.299 215.295 372.601C222.203 373.299 236.041 323.575 228.686 322.512C217.488 320.894 176.776 318.68 174.336 316.174C171.805 313.554 154.622 291.886 136.952 267.402C124.757 250.485 113.535 250.093 118.228 270.526Z" fill="#AD6359"/>
<path d="M209.75 369.92C210.573 370.338 222.258 376.215 229.483 378.309C234.874 379.872 250.512 383.953 252.821 378.189C254.402 374.26 245.488 370.777 239.24 368.174C235.949 366.802 231.892 363.357 232.862 361.24C234.558 357.542 243.032 361.257 248.604 364.495C259.379 370.756 273.733 382.026 280.316 376.56C282.802 374.493 279.913 370.73 275.686 367.04C282.544 371.34 289.86 374.868 292.711 372.682C294.349 371.437 294.424 369.728 293.513 367.776C295.63 368.464 297.502 368.329 298.806 366.95C301.036 364.617 299.949 361.173 297.51 357.643C298.292 357.561 298.995 357.163 299.535 356.313C304.256 349.115 280.628 328.45 272.456 326.515C248.414 320.8 223.081 321.864 223.081 321.864C213.639 329.41 209.731 369.904 209.75 369.92Z" fill="#AD6359"/>
<path d="M245.103 347.789C250.764 348.676 256.338 350.793 261.138 353.961C267.233 357.984 271.276 362.693 276.389 367.434C276.523 367.559 276.334 367.771 276.199 367.647C273.762 365.392 263.666 356.919 261.057 354.993C256.277 351.464 250.937 348.986 245.081 347.886C245.018 347.874 245.04 347.779 245.103 347.789Z" fill="#1E2223"/>
<path d="M249.582 337.588C255.901 339.315 262.376 341.062 268.24 344.051C274.658 347.321 279.681 352.653 284.619 357.785C287.584 360.866 290.486 364.01 293.307 367.223C293.425 367.358 293.245 367.571 293.117 367.436C288.106 362.135 282.938 356.978 277.612 351.994C272.602 347.304 267.014 343.715 260.596 341.27C256.981 339.893 253.266 338.794 249.557 337.7C249.489 337.679 249.512 337.568 249.582 337.588Z" fill="#1E2223"/>
<path d="M256.332 328.666C262.471 329.927 267.827 331.005 273.263 334.295C280.46 338.65 287.408 345.988 289.845 348.59C292.538 351.464 295.131 354.424 297.68 357.425C297.784 357.548 297.575 357.732 297.467 357.61C291.641 351.049 285.364 344.817 278.739 339.063C275.572 336.313 272.131 333.918 268.268 332.253C264.447 330.607 260.354 329.676 256.324 328.707C256.297 328.701 256.306 328.661 256.332 328.666Z" fill="#1E2223"/>
<path d="M219.211 319.829L202.011 374.313C202.011 374.313 155.447 361.021 146.938 351.842C138.429 342.664 122.725 295.278 118.104 272.311C113.484 249.344 125.098 249.912 135.772 264.393C146.445 278.875 173.017 313.971 174.503 314.733C175.989 315.496 219.211 319.829 219.211 319.829Z" fill="#0768E7"/>
<path opacity="0.1" d="M219.211 319.829L202.011 374.313C202.011 374.313 155.447 361.021 146.938 351.842C138.429 342.664 122.725 295.278 118.104 272.311C113.484 249.344 125.098 249.912 135.772 264.393C146.445 278.875 173.017 313.971 174.503 314.733C175.989 315.496 219.211 319.829 219.211 319.829Z" fill="#151515"/>
<path d="M197.545 350.109C199.628 343.685 201.762 337.276 203.608 330.773C204.656 327.079 205.725 323.389 206.738 319.685C206.777 319.545 206.543 319.46 206.491 319.598C204.145 325.963 201.807 332.352 199.752 338.824C197.708 345.262 195.61 351.684 193.65 358.15C192.535 361.827 191.534 365.523 190.644 369.265C190.626 369.339 190.745 369.383 190.774 369.311C193.335 363.019 195.447 356.577 197.545 350.109Z" fill="#1E2223"/>
<path d="M178.527 366.825C177.839 366.584 177.151 366.343 176.463 366.102C172.585 364.718 168.629 363.23 164.905 361.708C164.423 361.518 163.95 361.321 163.486 361.123C162.738 360.813 161.99 360.495 161.267 360.177C160.897 360.022 160.545 359.859 160.184 359.704C160.055 359.644 159.926 359.592 159.797 359.532C159.418 359.36 159.048 359.188 158.679 359.016C157.199 358.336 155.798 357.657 154.49 356.969C154.189 356.814 153.88 356.651 153.587 356.487C151.205 355.197 149.227 353.925 147.843 352.712C147.679 352.566 147.516 352.42 147.37 352.273C147.206 352.127 147.069 351.981 146.94 351.843C138.426 342.667 122.722 295.281 118.104 272.311C118.052 272.044 118.001 271.777 117.949 271.519C117.94 271.459 117.932 271.408 117.923 271.347C117.614 269.602 117.338 267.443 117.115 265.104V265.078C116.47 253.649 121.879 251.782 128.561 256.805C145.288 292.581 170.805 351.654 178.527 366.825Z" fill="#1E2223"/>
<path d="M154.373 375.971L52.8684 376.51C52.9501 374.328 67.4016 310.426 78.8886 286.844C93.6169 256.608 101.213 254.18 105.751 252.549C111.554 250.464 121.886 251.5 124.341 252.658C127.123 253.955 135.981 269.423 139.154 280.763C145.526 303.539 155.8 374.583 154.373 375.971Z" fill="#EBEBEB"/>
<path d="M100.572 254.939C100.572 254.939 113.448 302.71 114.114 305.883C115.083 310.497 121.517 376.265 121.517 376.265L50.783 376.511C50.783 376.511 66.2518 315.622 77.713 288.914C90.2492 259.703 100.572 254.939 100.572 254.939Z" fill="#0768E7"/>
<g opacity="0.1">
<path d="M100.572 254.939C100.572 254.939 113.448 302.71 114.114 305.883C115.083 310.497 121.517 376.265 121.517 376.265L50.783 376.511C50.783 376.511 66.2518 315.622 77.713 288.914C90.2492 259.703 100.572 254.939 100.572 254.939Z" fill="#151515"/>
</g>
<path d="M125.291 253.399C125.672 254.924 137.57 293.736 138.395 303.404C139.31 314.138 147.447 376.478 147.447 376.478H157.743C157.743 376.478 142.806 286.868 138.701 277.403C130.334 258.116 125.291 253.399 125.291 253.399Z" fill="#0768E7"/>
<path opacity="0.1" d="M125.291 253.399C125.672 254.924 137.57 293.736 138.395 303.404C139.31 314.138 147.447 376.478 147.447 376.478H157.743C157.743 376.478 142.806 286.868 138.701 277.403C130.334 258.116 125.291 253.399 125.291 253.399Z" fill="#151515"/>
<path d="M87.216 266.106C70.2164 284.313 28.9003 353.389 42.011 365.987C55.2145 378.674 127.882 361.627 148.32 351.89C154.399 348.993 131.297 311.09 124.151 310.205C118.203 309.468 87.7879 323.381 86.9081 321.631C85.914 319.653 90.7454 305.057 98.0623 278.633C106.498 248.166 94.7247 258.065 87.216 266.106Z" fill="#AD6359"/>
<path d="M154.354 297.971C169.131 295.913 173.24 297.653 184.788 289.294C192.366 283.809 199.121 286.293 194.798 295.009C187.726 309.265 169.22 315.924 162.139 316.385L154.354 297.971Z" fill="#AD6359"/>
<path d="M115.107 312.195C115.107 312.195 131.709 302.976 147.239 299.225C157.978 296.631 181.971 293.593 204.928 317.266C210.372 322.881 214.149 334.744 201.925 328.803C193.243 324.583 189.012 319.284 183.514 317.748C183.514 317.748 186.526 333.408 180.689 338.643C178.079 340.983 170.809 347.202 164.458 351.237C164.458 351.237 163.207 350.09 161.83 348.411C161.83 348.411 155.915 352.787 144.778 351.726L115.107 312.195Z" fill="#AD6359"/>
<path d="M157.883 298.386C163.017 301.065 173.804 306.92 180.962 314.781C188.913 323.511 201.875 342.472 195.369 348.274C190.598 352.529 185.013 345.725 185.013 345.725C185.013 345.725 188.719 354.692 183.57 357.592C178.877 360.236 174.872 354.713 174.872 354.713C174.872 354.713 176.184 360.539 171.174 362.214C165.147 364.23 163.385 351.69 155.517 348.457C153.751 347.731 157.883 298.386 157.883 298.386Z" fill="#AD6359"/>
<path d="M170.336 321.642C174.752 324.951 182.852 335.041 185.093 345.492C185.143 345.729 184.992 345.895 184.899 345.688C179.988 334.705 173.318 325.468 170.252 321.718C170.213 321.667 170.287 321.605 170.336 321.642Z" fill="#1E2223"/>
<path d="M161.757 329.924C165.273 333.171 173.158 343.943 175.065 354.612C175.108 354.85 174.944 355.006 174.861 354.796C170.203 343.109 164.507 333.921 161.67 329.994C161.632 329.941 161.711 329.882 161.757 329.924Z" fill="#1E2223"/>
<path d="M183.516 317.651C188.331 319.068 191.463 321.431 195.527 324.253C197.538 325.649 199.575 327.016 201.73 328.181C203.693 329.242 206.585 330.846 208.674 329.184C209.837 328.259 209.819 326.576 209.561 325.25C209.271 323.76 207.798 321.008 206.914 319.771C206.87 319.709 206.978 319.629 207.024 319.69C207.84 320.79 209.444 323.28 209.918 324.569C210.347 325.736 210.682 327.092 210.353 328.327C209.646 330.983 206.514 331.331 204.297 330.601C202.971 330.164 201.715 329.459 200.507 328.767C199.339 328.097 198.205 327.372 197.09 326.619C194.8 325.072 192.603 323.395 190.332 321.822C187.837 320.095 186.113 319.249 183.443 317.81C183.354 317.763 183.421 317.623 183.516 317.651Z" fill="#1E2223"/>
<path d="M193.6 334.592C192.354 331.846 185.606 320.411 183.417 317.765C183.361 317.697 183.453 317.609 183.516 317.67C187.269 321.228 193.301 330.678 194.707 333.706C196.096 336.698 197.697 340.522 197.697 343.857C197.698 348.888 194.36 349.842 193.127 350.088C191.654 350.381 190.167 350.072 188.845 349.387C187.373 348.624 185.949 347.043 184.964 345.74C184.912 345.671 185.003 345.577 185.062 345.645C186.806 347.627 189.702 349.583 192.436 349.224C193.622 349.068 194.823 348.528 195.548 347.545C196.399 346.389 196.467 344.869 196.352 343.493C196.092 340.376 194.879 337.413 193.6 334.592Z" fill="#1E2223"/>
<path d="M115.107 312.196L138.395 361.188C138.395 361.188 47.3 381.648 39.4396 365.792C31.5792 349.935 66.9579 287.872 82.8997 269.799C101.375 248.854 103.735 255.977 99.6637 274.543C95.4015 293.98 87.173 322.09 87.173 322.09L115.107 312.196Z" fill="#0768E7"/>
<path opacity="0.1" d="M115.107 312.196L138.395 361.188C138.395 361.188 47.3 381.648 39.4396 365.792C31.5792 349.935 66.9579 287.872 82.8997 269.799C101.375 248.854 103.735 255.977 99.6637 274.543C95.4015 293.98 87.173 322.09 87.173 322.09L115.107 312.196Z" fill="#151515"/>
<path d="M59.4846 335.134C63.69 332.184 68.1843 329.639 72.7681 327.33C77.3098 325.042 82.075 323.255 86.8971 321.661C89.6516 320.75 92.4406 319.976 95.2296 319.181C95.3147 319.157 95.3483 319.288 95.264 319.314C90.399 320.838 85.6458 322.795 80.9923 324.869C76.3569 326.933 71.7671 329.078 67.2108 331.313C64.6334 332.577 62.117 333.961 59.5843 335.312C59.4674 335.376 59.3779 335.208 59.4846 335.134Z" fill="#1E2223"/>
<path d="M114.862 312.054C114.403 312.173 89.4925 320.398 88.6747 320.779C88.7787 320.403 93.2473 307.157 93.9164 305.218C93.9835 305.024 94.0402 304.83 94.1056 304.636C94.5597 303.771 95.0189 302.909 95.4386 302.026C95.9769 300.894 96.5067 299.758 97.0373 298.623C97.0537 298.589 97.0029 298.559 96.9849 298.594C96.4026 299.701 95.8196 300.807 95.2434 301.919C94.9768 302.433 94.7282 302.954 94.4814 303.477C94.92 302.107 95.3414 300.733 95.7619 299.353C96.4327 297.152 97.0322 294.939 97.6247 292.717C97.6436 292.644 97.537 292.62 97.5138 292.689C96.1919 296.553 94.7489 300.372 93.4159 304.231C92.0854 308.084 86.9572 322.308 86.9968 322.297C87.0424 322.334 114.435 312.615 114.964 312.394C115.171 312.307 115.088 311.994 114.862 312.054Z" fill="#1E2223"/>
<path d="M116.543 344.012C113.979 338.544 111.459 333.054 108.691 327.68C107.119 324.627 105.563 321.564 103.962 318.526C103.902 318.411 103.697 318.499 103.748 318.62C106.103 324.21 108.48 329.811 111.091 335.293C113.689 340.747 116.241 346.222 118.911 351.644C120.428 354.726 122.033 357.751 123.737 360.739C123.77 360.798 123.874 360.755 123.85 360.69C121.68 355.016 119.124 349.518 116.543 344.012Z" fill="#1E2223"/>
<path d="M139.569 361.955C138.657 360.447 137.505 358.273 136.531 356.804C136.274 356.416 135.975 356.497 136.181 356.903C136.875 358.273 137.45 359.813 138.137 361.217C136.858 361.472 135.574 361.699 134.297 361.966C132.82 362.276 131.344 362.592 129.867 362.897C126.973 363.494 124.074 364.06 121.168 364.597C115.284 365.684 109.377 366.646 103.453 367.484C91.5771 369.162 79.6094 370.41 67.6201 370.847C64.267 370.97 60.9078 371.028 57.553 370.982C54.1448 370.934 50.4623 370.863 47.644 370.506C47.5546 370.495 47.5357 370.647 47.626 370.666C50.5491 371.267 53.2693 371.638 56.2449 371.784C59.2816 371.934 62.3251 371.999 65.3661 371.965C71.4213 371.896 77.4714 371.505 83.5009 370.951C95.4557 369.852 107.369 368.234 119.191 366.147C122.504 365.562 125.809 364.938 129.108 364.275C130.772 363.941 132.437 363.606 134.094 363.24C135.751 362.874 139.725 362.211 139.569 361.955Z" fill="#1E2223"/>
<path d="M125.311 271.228C119.286 272.889 108.511 263.987 104.113 256.611C103.814 256.104 104.405 250.636 104.807 243.957C105.036 239.903 105.195 235.384 105.043 231.25C105.008 230.401 131.206 236.593 131.206 236.593C131.206 236.593 128.977 245.354 129.286 252.56C129.319 253.162 129.399 253.72 129.527 254.25C129.539 254.327 129.565 254.421 129.575 254.529C130.22 257.733 131.133 269.619 125.311 271.228Z" fill="#AD6359"/>
<path d="M106.641 231.299C108.101 238.244 113.072 254.971 126.921 254.774C127.885 254.762 128.767 254.681 129.569 254.533C129.571 254.416 129.539 254.332 129.525 254.25C129.403 253.715 129.316 253.165 129.279 252.566C128.971 245.346 131.206 236.587 131.206 236.587C131.206 236.587 112.307 232.119 106.641 231.299Z" fill="#1E2223"/>
<path d="M134.329 218.828C134.042 225.175 138.323 230.526 143.893 230.778C149.461 231.03 154.209 226.088 154.496 219.741C154.784 213.393 150.503 208.043 144.933 207.791C139.364 207.539 134.617 212.481 134.329 218.828Z" fill="#455A64"/>
<path d="M131.043 219.081C130.723 226.142 135.487 232.094 141.682 232.375C147.878 232.655 153.159 227.158 153.479 220.096C153.799 213.035 149.035 207.083 142.841 206.803C136.645 206.522 131.363 212.019 131.043 219.081Z" fill="#FEF7F7"/>
<path d="M108.454 198.304C103.948 206.802 103.664 233.82 108.962 240.883C116.643 251.121 131.735 254.88 141.069 245.072C150.117 235.566 149.864 200.349 143.711 193.672C134.65 183.837 115.11 185.749 108.454 198.304Z" fill="#AD6359"/>
<path d="M130.915 219.192C130.899 219.123 130.775 219.281 130.779 219.356C130.877 221.174 130.683 223.273 129.051 223.914C129.001 223.934 129.008 224.025 129.069 224.015C131.072 223.688 131.301 220.899 130.915 219.192Z" fill="#1E2223"/>
<path d="M129.248 217.328C126.317 217.172 126.219 223.045 128.935 223.191C131.608 223.333 131.705 217.46 129.248 217.328Z" fill="#1E2223"/>
<path d="M141.099 219.416C141.115 219.347 141.24 219.505 141.237 219.579C141.149 221.398 141.355 223.495 142.99 224.126C143.041 224.146 143.034 224.237 142.974 224.228C140.969 223.911 140.725 221.124 141.099 219.416Z" fill="#1E2223"/>
<path d="M142.756 217.542C145.686 217.369 145.818 223.242 143.103 223.403C140.431 223.561 140.3 217.688 142.756 217.542Z" fill="#1E2223"/>
<path d="M126.617 212.637C127.441 212.593 128.193 212.415 129.004 212.288C129.918 212.143 130.662 212.123 131.371 211.467C131.751 211.115 131.771 210.354 131.464 209.953C130.749 209.018 129.586 208.916 128.477 209.044C127.275 209.183 126.385 209.598 125.542 210.464C124.725 211.304 125.531 212.694 126.617 212.637Z" fill="#1E2223"/>
<path d="M145.522 213.299C144.711 213.153 143.986 212.883 143.198 212.655C142.308 212.398 141.574 212.285 140.952 211.545C140.619 211.149 140.694 210.392 141.049 210.031C141.875 209.192 143.042 209.237 144.126 209.503C145.301 209.791 146.133 210.314 146.861 211.279C147.566 212.213 146.593 213.492 145.522 213.299Z" fill="#1E2223"/>
<path d="M127.596 236.049C128.026 236.483 128.45 237.076 129.109 237.143C129.741 237.207 130.489 236.934 131.073 236.718C131.131 236.697 131.188 236.759 131.15 236.813C130.666 237.504 129.665 237.924 128.824 237.763C128.002 237.605 127.607 236.886 127.419 236.129C127.393 236.023 127.533 235.987 127.596 236.049Z" fill="#1E2223"/>
<path d="M129.599 230.633C130.592 232.229 132.074 233.118 133.689 233.459C134.409 233.617 135.17 233.654 135.916 233.598C136.062 233.598 136.209 233.584 136.343 233.556C136.476 233.543 136.595 233.529 136.743 233.501C136.956 233.474 137.075 233.301 137.115 233.101L137.114 233.088C137.114 233.021 137.114 232.967 137.1 232.901C137.1 232.901 137.1 232.901 137.1 232.887L137.099 232.727C137.161 231.327 137.06 229.194 137.06 229.194C137.567 229.458 140.158 230.676 140.129 229.943C139.868 223.878 139.578 217.132 138.037 211.152C137.996 210.952 137.69 210.993 137.704 211.194C137.725 217.032 138.771 222.829 138.886 228.695C138.057 228.365 136.709 227.756 135.976 227.758C135.777 227.812 136.244 231.877 136.166 232.504C136.166 232.504 136.166 232.53 136.153 232.571C133.794 232.832 132.032 232.092 129.773 230.473C129.638 230.367 129.492 230.487 129.599 230.633Z" fill="#1E2223"/>
<path d="M135.102 232.874C135.102 232.874 133.832 234.529 132.12 235.106C131.491 235.321 130.814 235.399 130.109 235.198C128.663 234.792 128.648 233.457 128.935 232.321C129.167 231.387 129.615 230.586 129.615 230.586C129.615 230.586 131.703 232.607 135.102 232.874Z" fill="#1E2223"/>
<path d="M132.12 235.106C131.491 235.321 130.814 235.399 130.109 235.198C128.663 234.792 128.648 233.458 128.935 232.322C130.489 232.506 132.013 233.59 132.12 235.106Z" fill="#FF98B9"/>
<path opacity="0.2" d="M105.072 217.386C106.85 217.102 111.087 211.106 112.889 208.722C114.783 206.251 115.729 193.568 115.894 190.677C112.801 192.472 110.185 195.015 108.449 198.3C106.43 202.103 105.274 209.605 105.072 217.386Z" fill="#1E2223"/>
<path d="M137.869 201.212C135.729 203.53 132.541 204.654 129.422 204.046C126.385 203.455 123.421 201.248 122.419 198.254C122.389 198.165 122.251 198.211 122.281 198.301C123.352 201.502 125.834 204.191 129.272 204.775C132.498 205.323 136.027 203.942 138.039 201.364C138.126 201.25 137.97 201.103 137.869 201.212Z" fill="#1E2223"/>
<path d="M129.125 178.347C123.824 178.294 118.868 181.072 116.816 184.62C115.57 186.775 115.323 188.995 115.606 191.271C115.618 191.363 115.808 191.35 115.803 191.257C115.612 187.661 117.514 183.632 121.435 181.25C125.204 178.963 130.128 178.373 134.32 180.116C136.509 181.025 138.259 182.489 139.125 184.23C139.222 184.425 139.623 184.313 139.544 184.114C138.212 180.762 133.923 178.394 129.125 178.347Z" fill="#1E2223"/>
<path d="M159.527 190.807C158.773 188.172 157.022 185.877 154.748 184.368C151.562 182.253 147.877 182.433 144.22 182.687C144.121 182.694 144.131 182.848 144.23 182.841C147.344 182.635 150.515 182.607 153.323 184.159C155.613 185.423 157.498 187.472 158.458 189.916C160.449 194.99 158.221 201.133 153.379 203.67C150.639 205.107 147.295 205.342 144.384 204.298C144.269 204.257 144.179 204.425 144.295 204.47C149.612 206.535 156.019 204.285 158.627 199.144C159.915 196.607 160.314 193.557 159.527 190.807Z" fill="#1E2223"/>
<path d="M106.533 203.508C106.533 203.508 101.845 193.854 106.247 188.521C108.742 185.499 116.632 186.194 116.632 186.194C116.632 186.194 119.345 181.74 125.948 180.48C132.621 179.206 140.347 183.356 140.347 183.356C140.347 183.356 146.761 179.987 152.525 183.565C160.562 188.553 159.081 201.017 150.674 204.736C144.77 207.347 137.081 201.926 137.081 201.926C136.32 202.001 128.393 206.395 122.782 199.261C122.782 199.261 117.862 203.323 113.692 200.199C113.692 200.199 111.369 204.417 106.533 203.508Z" fill="#1E2223"/>
<path d="M109.913 220.649C109.913 220.649 105.455 211.156 101.247 212.603C97.0382 214.051 99.3688 227.098 103.591 229.557C107.811 232.017 110.165 228.154 110.165 228.154L109.913 220.649Z" fill="#AD6359"/>
<path d="M102.008 216.327C101.937 216.308 101.905 216.407 101.963 216.444C104.905 218.272 106.064 221.494 106.704 224.737C105.965 223.404 104.795 222.541 103.033 223.389C102.941 223.434 102.998 223.577 103.09 223.573C104.434 223.52 105.329 223.906 106.026 225.096C106.519 225.938 106.782 226.94 107.079 227.865C107.178 228.174 107.715 228.111 107.663 227.766C107.659 227.741 107.654 227.713 107.65 227.689C108.428 223.668 106.269 217.482 102.008 216.327Z" fill="#1E2223"/>
<path d="M119.647 239.7L111.171 236.047L104.359 227.562L105.668 226.511L112.219 234.671L120.311 238.158L119.647 239.7Z" fill="#FEF7F7"/>
<path d="M118.741 238.347C119.569 235.882 126.488 236.791 125.233 240.528C123.975 244.275 117.91 240.823 118.741 238.347Z" fill="#37474F"/>
<path d="M101.121 212.345C101.121 212.345 100.196 198.473 104.26 190.822C108.785 182.305 127.531 174.197 140.347 183.356C140.347 183.356 119.468 179.623 109.745 191.434C105.649 196.41 105.753 212.716 105.753 212.716L101.121 212.345Z" fill="#FEF7F7"/>
<path d="M103.012 232.281C109.213 232.22 114.184 226.439 114.114 219.37C114.044 212.302 108.96 206.621 102.758 206.682C96.5567 206.744 91.586 212.524 91.656 219.593C91.726 226.662 96.8101 232.342 103.012 232.281Z" fill="#FEF7F7"/>
<path d="M110.839 218.989C110.901 225.342 106.434 230.538 100.859 230.593C95.2846 230.649 90.7146 225.543 90.6518 219.189C90.589 212.835 95.0558 207.64 100.63 207.584C106.205 207.529 110.775 212.635 110.839 218.989Z" fill="#455A64"/>
<path d="M129.476 254.112L123.407 269.417L104.338 250.171L98.9861 256.397C98.9861 256.397 117.691 287.025 117.802 285.638L124.04 272.442L133.17 281.563L132.331 258.566L129.476 254.112Z" fill="#EBEBEB"/>
<path d="M133.397 270.172C133.132 266.379 132.97 262.553 132.529 258.777C132.513 258.642 132.302 258.584 132.271 258.742C131.527 262.408 132.621 276.905 132.62 280.382C132.607 280.369 132.591 280.356 132.58 280.343C132.199 279.948 124.12 272.319 124.041 272.441C122.685 274.538 118.107 284.147 117.795 285.021C114.838 280.156 102.288 260.98 98.7917 256.382C98.6911 256.251 98.4864 256.361 98.5647 256.515C101.182 261.655 117.397 286.961 117.625 286.893C117.781 287.013 123.471 275.177 124.147 272.942C125.516 274.607 133.674 283.22 133.7 282.656C133.869 278.85 133.663 273.968 133.397 270.172Z" fill="#1E2223"/>
<path d="M337.844 213.86H311.243C305.873 213.86 301.519 209.507 301.519 204.137C301.519 198.767 305.873 194.414 311.243 194.414H337.844C343.214 194.414 347.567 198.767 347.567 204.137C347.567 209.507 343.214 213.86 337.844 213.86Z" fill="#455A64"/>
<path d="M317.059 203.97C317.063 203.642 317.185 203.357 317.352 203.088C317.426 202.969 317.509 202.854 317.587 202.737L318.098 202.225C318.296 202.084 318.489 201.934 318.692 201.8C319.51 201.257 320.42 200.946 321.374 200.757C323.596 200.316 325.818 200.328 328.039 200.765C328.98 200.95 329.878 201.26 330.686 201.793C330.896 201.932 331.096 202.085 331.301 202.233L331.794 202.726C331.917 202.921 332.059 203.109 332.157 203.315C332.249 203.509 332.295 203.725 332.367 203.951C332.289 203.957 332.253 203.963 332.216 203.963C330.814 203.965 329.411 203.965 328.008 203.97C327.922 203.97 327.879 203.942 327.838 203.869C327.566 203.384 327.155 203.11 326.594 203.075C325.325 202.995 324.057 202.993 322.788 203.077C322.228 203.114 321.818 203.39 321.546 203.876C321.514 203.933 321.486 203.976 321.404 203.976C319.98 203.974 318.555 203.976 317.13 203.977C317.109 203.976 317.087 203.973 317.059 203.97Z" fill="#0976DC"/>
<path d="M317.054 206.432C317.054 205.937 317.054 205.442 317.054 204.947C317.054 204.91 317.057 204.872 317.058 204.844C318.497 204.843 319.928 204.842 321.371 204.839C321.367 204.935 321.357 205.045 321.357 205.155C321.356 205.576 321.358 205.998 321.358 206.42C321.357 206.786 321.176 206.968 320.809 206.968C319.738 206.97 318.667 206.971 317.595 206.971C317.237 206.972 317.055 206.79 317.054 206.432Z" fill="#0976DC"/>
<path d="M328.034 206.454C328.04 205.913 328.061 205.372 328.075 204.834C329.457 204.832 330.888 204.83 332.326 204.828C332.328 204.853 332.332 204.886 332.332 204.92C332.333 205.423 332.335 205.926 332.335 206.429C332.334 206.771 332.15 206.956 331.81 206.957C330.726 206.959 329.641 206.961 328.558 206.959C328.229 206.96 328.031 206.775 328.034 206.454Z" fill="#0976DC"/>
<path d="M228.706 377.537H222.805V381.389H228.706V377.537Z" fill="#455A64"/>
<path d="M236.359 377.282H230.458V381.135H236.359V377.282Z" fill="#455A64"/>
<path d="M244.011 377.028H238.11V380.88H244.011V377.028Z" fill="#455A64"/>
<path d="M251.664 376.773H245.763V380.626H251.664V376.773Z" fill="#455A64"/>
<path d="M259.318 376.519H253.416V380.371H259.318V376.519Z" fill="#455A64"/>
<path d="M266.97 376.264H261.068V380.117H266.97V376.264Z" fill="#455A64"/>
<path d="M274.623 376.009H268.722V379.862H274.623V376.009Z" fill="#455A64"/>
<path d="M282.276 375.755H276.375V379.608H282.276V375.755Z" fill="#455A64"/>
<path d="M289.928 375.5H284.027V379.353H289.928V375.5Z" fill="#455A64"/>
<path d="M291.374 383.606H221.36V378.918L291.374 376.966V383.606Z" fill="#37474F"/>
<path d="M359.709 365.118H244.126L262.508 279.07H378.09L359.709 365.118Z" fill="#455A64"/>
<path d="M363.985 365.118H248.401L266.783 279.07H382.365L363.985 365.118Z" fill="#37474F"/>
<path d="M325.372 317.108C324.747 321.054 321.041 324.254 317.094 324.254C313.147 324.254 310.455 321.055 311.08 317.108C311.705 313.161 315.411 309.961 319.358 309.961C323.306 309.961 325.998 313.161 325.372 317.108Z" fill="#1E2223"/>
<path d="M331.295 387.591H274.448V383.176L331.295 381.339V387.591Z" fill="#455A64"/>
<path d="M346.751 387.585H316.23L297.848 339.368H328.37L346.751 387.585Z" fill="#455A64"/>
<path d="M351.774 387.585H321.253L302.871 339.368H333.393L351.774 387.585Z" fill="#1E2223"/>
<path d="M219.199 388.764C219.199 388.764 165.594 388.764 160.59 388.764C155.587 388.764 162.826 374.522 181.079 369.058C199.333 363.594 224.956 383.422 219.199 388.764Z" fill="#37474F"/>
<path d="M196.2 388.764C196.234 387.15 196.527 385.539 196.999 383.985C197.465 382.427 198.139 380.928 198.973 379.52C199.803 378.108 200.869 376.834 202.083 375.741C203.266 374.602 204.738 373.821 206.203 373.179C205.572 373.694 204.858 374.054 204.284 374.618L203.379 375.382L202.548 376.224C201.477 377.371 200.492 378.601 199.708 379.964C198.893 381.306 198.212 382.732 197.63 384.203C197.066 385.681 196.563 387.195 196.2 388.764Z" fill="#1E2223"/>
<path d="M203.144 375.213C204.887 375.748 206.563 376.473 208.201 377.278C209.839 378.082 211.417 379.016 212.916 380.074C214.403 381.144 215.827 382.34 217 383.778C217.579 384.5 218.105 385.271 218.513 386.104C218.894 386.947 219.182 387.848 219.199 388.764C218.988 387.877 218.63 387.049 218.142 386.305C217.679 385.548 217.117 384.856 216.504 384.214C215.267 382.939 213.882 381.804 212.418 380.774C210.967 379.724 209.431 378.788 207.888 377.857C207.115 377.392 206.328 376.949 205.533 376.518C204.749 376.062 203.945 375.648 203.144 375.213Z" fill="#1E2223"/>
<path d="M223.396 193.405C221.901 207.706 209.087 218.092 194.787 216.597C189.006 215.992 183.869 213.54 179.89 209.875L166.863 211.787L173.381 200.525C171.8 196.678 171.133 192.396 171.595 187.987C173.09 173.686 185.904 163.3 200.205 164.796C214.505 166.291 224.892 179.104 223.396 193.405Z" fill="#0976DC"/>
<path d="M223.396 193.405C222.852 198.159 221.114 202.819 218.141 206.605C217.458 207.597 216.578 208.426 215.781 209.322C214.876 210.111 214.032 210.975 213.033 211.648C211.128 213.116 208.989 214.265 206.752 215.146C204.526 216.083 202.13 216.531 199.741 216.818C198.536 216.882 197.33 216.992 196.123 216.887C194.914 216.859 193.71 216.73 192.52 216.512C187.754 215.649 183.242 213.418 179.638 210.151L179.945 210.246L166.931 212.244L165.987 212.389L166.465 211.556L172.944 200.272L172.914 200.718C169.758 193.285 170.469 184.435 174.518 177.509C176.536 174.041 179.351 171.053 182.673 168.825C185.994 166.59 189.844 165.189 193.786 164.655C197.732 164.131 201.793 164.49 205.561 165.742C209.325 167.01 212.776 169.141 215.604 171.9C221.352 177.366 224.241 185.565 223.396 193.405ZM223.396 193.405C224.187 185.558 221.241 177.409 215.49 172.018C212.635 169.322 209.179 167.278 205.449 166.093C201.713 164.924 197.717 164.645 193.867 165.225C190.021 165.815 186.297 167.247 183.113 169.473C179.937 171.704 177.257 174.621 175.322 177.971C173.349 181.314 172.327 185.144 172.017 188.989C171.774 192.847 172.403 196.751 173.85 200.333L173.944 200.566L173.82 200.779L167.263 212.018L166.797 211.331L179.836 209.505L180.016 209.48L180.144 209.601C183.591 212.836 187.953 215.095 192.613 216.023C193.778 216.258 194.958 216.406 196.146 216.452C197.332 216.578 198.52 216.489 199.709 216.447C202.067 216.205 204.444 215.806 206.664 214.916C208.892 214.081 211.047 212.987 212.945 211.531C213.943 210.868 214.788 210.013 215.695 209.234C216.494 208.348 217.376 207.528 218.063 206.545C221.051 202.793 222.819 198.156 223.396 193.405Z" fill="#1E2223"/>
<path d="M212.012 191.487C212.012 193.228 210.601 194.639 208.86 194.639C207.12 194.639 205.708 193.228 205.708 191.487C205.708 189.747 207.12 188.335 208.86 188.335C210.601 188.335 212.012 189.747 212.012 191.487Z" fill="#1E2223"/>
<path d="M200.716 191.487C200.716 193.228 199.305 194.639 197.564 194.639C195.824 194.639 194.412 193.228 194.412 191.487C194.412 189.747 195.824 188.335 197.564 188.335C199.305 188.335 200.716 189.747 200.716 191.487Z" fill="#1E2223"/>
<path d="M189.419 191.487C189.419 193.228 188.008 194.639 186.267 194.639C184.527 194.639 183.115 193.228 183.115 191.487C183.115 189.747 184.527 188.335 186.267 188.335C188.008 188.335 189.419 189.747 189.419 191.487Z" fill="#1E2223"/>
<path d="M234.427 58.3656C235.922 72.6666 248.735 83.0528 263.036 81.5573C268.816 80.9527 273.954 78.5 277.932 74.8355L290.96 76.7473L284.442 65.4856C286.023 61.638 286.69 57.356 286.228 52.9476C284.732 38.6467 271.919 28.2605 257.618 29.756C243.316 31.2524 232.93 44.0647 234.427 58.3656Z" fill="#0976DC"/>
<path d="M242.22 36.8612C245.048 34.1024 248.499 31.9713 252.262 30.7036C256.031 29.4515 260.091 29.092 264.037 29.6157C267.979 30.1489 271.83 31.5507 275.15 33.7859C278.472 36.0141 281.287 39.0018 283.305 42.4702C287.354 49.3957 288.066 58.246 284.909 65.679L284.879 65.2335L291.359 76.5176L291.837 77.35L290.892 77.2047L277.878 75.2069L278.186 75.1123C274.582 78.3795 270.068 80.6103 265.304 81.4729C264.113 81.6913 262.91 81.8203 261.701 81.8478C260.494 81.9536 259.287 81.8435 258.083 81.779C255.693 81.4918 253.298 81.0446 251.072 80.1072C248.835 79.2274 246.695 78.0767 244.79 76.6104C243.791 75.9362 242.947 75.0719 242.043 74.2833C241.245 73.3863 240.366 72.5581 239.683 71.5665C236.71 67.78 234.972 63.1213 234.427 58.3664C233.58 50.5258 236.471 42.3265 242.22 36.8612ZM239.759 71.5055C240.447 72.4893 241.329 73.308 242.128 74.1947C243.035 74.973 243.879 75.827 244.878 76.4909C246.776 77.9469 248.93 79.0417 251.159 79.8759C253.378 80.766 255.755 81.1641 258.114 81.4075C259.303 81.4505 260.491 81.5382 261.676 81.4127C262.864 81.3654 264.045 81.2175 265.209 80.9835C269.87 80.0547 274.232 77.7964 277.679 74.5611L277.807 74.4407L277.986 74.4656L291.026 76.2914L290.56 76.9785L284.003 65.7392L283.879 65.5259L283.973 65.2928C285.419 61.7109 286.05 57.8065 285.806 53.9494C285.496 50.1044 284.473 46.2739 282.501 42.9311C280.565 39.5806 277.886 36.6634 274.71 34.4335C271.526 32.2069 267.801 30.775 263.955 30.1851C260.107 29.6054 256.111 29.8841 252.374 31.0537C248.644 32.2387 245.188 34.2812 242.333 36.9782C236.582 42.3695 233.634 50.518 234.426 58.3655C235.003 63.117 236.771 67.7542 239.759 71.5055Z" fill="#1E2223"/>
<path d="M262.645 58.8377V62.0885C262.645 63.4886 261.594 64.5386 260.194 64.5386C258.894 64.5386 257.743 63.4886 257.743 62.0885V56.8872C257.743 56.8373 257.794 56.8373 257.794 56.7874C257.743 56.7376 257.743 56.7376 257.743 56.6877C257.743 55.3874 258.894 54.2375 260.194 54.2375C263.344 54.2375 265.895 51.7375 265.895 48.6364C265.895 45.4862 263.344 43.0352 260.194 43.0352C258.143 43.0352 256.343 44.1351 255.393 45.7855C254.693 46.986 253.193 47.3859 251.993 46.6859C250.843 45.9858 250.443 44.5359 251.142 43.3353C252.942 40.235 256.344 38.134 260.194 38.134C265.995 38.134 270.745 42.8348 270.745 48.6355C270.745 53.5865 267.296 57.7377 262.645 58.8377ZM262.645 69.7898V70.6902C262.645 72.0903 261.594 73.1403 260.194 73.1403C258.894 73.1403 257.743 72.0903 257.743 70.6902V69.7898C257.743 68.4396 258.894 67.3396 260.194 67.3396C261.595 67.3388 262.645 68.4396 262.645 69.7898Z" fill="#0768E7"/>
</svg>
