<svg width="1202" height="837" viewBox="0 0 1202 837" fill="none" xmlns="http://www.w3.org/2000/svg">
<g clip-path="url(#clip0_190_10)">
<path d="M444.735 476.979C435.85 517.328 421.107 558.725 405.097 596.461C389.841 632.048 372.852 666.64 354.2 700.092C323.949 676.601 294.783 651.41 266.823 624.625C237.328 596.158 207.567 563.826 183.608 530.167C159.382 496.162 142.722 463.085 136.604 433.05C127.193 386.844 134.676 339.168 157.409 300.509C180.141 261.851 216.26 235.378 257.82 226.912C299.379 218.447 342.976 228.684 379.018 255.371C415.06 282.057 440.596 323.008 450.007 369.214C456.125 399.249 453.699 436.214 444.735 476.979ZM364.278 749.57C364.278 749.57 511.965 513.147 481.347 362.83C470.054 307.383 439.411 258.243 396.16 226.219C352.91 194.195 300.594 181.91 250.722 192.069C200.851 202.227 157.508 233.995 130.229 280.385C102.95 326.775 93.9701 383.986 105.264 439.433C135.881 589.75 364.278 749.57 364.278 749.57Z" fill="black"/>
<path d="M307.5 470.819C290.876 474.206 273.438 470.111 259.021 459.436C244.604 448.761 234.39 432.381 230.625 413.899C226.86 395.417 229.854 376.346 238.947 360.883C248.04 345.42 262.487 334.83 279.111 331.444C295.735 328.058 313.174 332.153 327.591 342.827C342.007 353.502 352.222 369.882 355.986 388.365C359.751 406.847 356.757 425.917 347.664 441.381C338.572 456.844 324.124 467.433 307.5 470.819ZM314.597 505.663C339.533 500.584 361.205 484.7 374.844 461.505C388.483 438.31 392.973 409.705 387.327 381.981C381.68 354.258 366.358 329.687 344.733 313.675C323.108 297.663 296.95 291.521 272.014 296.6C247.078 301.679 225.407 317.564 211.767 340.758C198.128 363.953 193.638 392.559 199.285 420.283C204.932 448.006 220.253 472.576 241.878 488.588C263.504 504.6 289.661 510.742 314.597 505.663Z" fill="black"/>
</g>
<g clip-path="url(#clip1_190_10)">
<path fill-rule="evenodd" clip-rule="evenodd" d="M1197.65 138.682C1197.98 139.95 1198.04 141.322 1197.81 142.698C1197.58 144.074 1197.08 145.42 1196.33 146.638L1055.12 377.206C1053.95 379.108 1052.25 380.605 1050.32 381.442C1048.38 382.279 1046.32 382.405 1044.5 381.798L963.789 355.015C962.745 354.668 961.804 354.092 961.02 353.319L901.67 294.775L822.549 268.511C821.379 268.122 820.34 267.446 819.507 266.53C818.674 265.615 818.069 264.483 817.734 263.216C817.398 261.95 817.342 260.58 817.569 259.205C817.796 257.831 818.3 256.486 819.045 255.268L960.259 24.7007C961.426 22.7984 963.121 21.3013 965.057 20.4641C966.994 19.6269 969.051 19.5012 970.88 20.1083L1051.59 46.8913C1052.63 47.238 1053.57 47.8142 1054.35 48.5868L1113.71 107.131L1192.83 133.396C1194 133.782 1195.04 134.457 1195.87 135.371C1196.7 136.285 1197.31 137.416 1197.65 138.682ZM1097.36 117.957L1048.94 70.1803L918.012 283.949L966.438 331.726L1097.36 117.957ZM980.562 340.376L1045.13 361.803L1176.05 148.034L1111.49 126.608L980.562 340.376ZM903.888 275.299L1034.81 61.5299L970.248 40.1035L839.322 253.872L903.888 275.299Z" fill="black"/>
</g>
<g clip-path="url(#clip2_190_10)">
<path d="M866 837.326C904.188 837.348 941.083 823.907 969.819 799.505C998.556 775.104 1017.18 741.403 1022.21 704.676C1027.25 667.949 1018.37 630.696 997.21 599.851C976.053 569.006 944.066 546.67 907.202 536.999C908.1 533.964 908.259 530.768 907.666 527.663C907.074 524.559 905.745 521.63 903.786 519.109C901.827 516.588 899.291 514.543 896.378 513.136C893.465 511.729 890.254 510.997 887 511H845C841.746 510.997 838.535 511.729 835.622 513.136C832.709 514.543 830.173 516.588 828.214 519.109C826.255 521.63 824.926 524.559 824.334 527.663C823.741 530.768 823.9 533.964 824.798 536.999C787.934 546.67 755.947 569.006 734.79 599.851C713.633 630.696 704.747 667.949 709.786 704.676C714.824 741.403 733.444 775.104 762.181 799.505C790.917 823.907 827.812 837.348 866 837.326ZM1002.5 684.513C1002.5 719.638 988.119 753.324 962.52 778.161C936.921 802.998 902.202 816.951 866 816.951C829.798 816.951 795.079 802.998 769.48 778.161C743.881 753.324 729.5 719.638 729.5 684.513C729.5 649.389 743.881 615.703 769.48 590.866C795.079 566.029 829.798 552.076 866 552.076C902.202 552.076 936.921 566.029 962.52 590.866C988.119 615.703 1002.5 649.389 1002.5 684.513Z" fill="black"/>
<path d="M843.74 662.59L947.69 604.929L888.26 705.785L784.331 763.446L843.74 662.59Z" fill="black"/>
</g>
<defs>
<clipPath id="clip0_190_10">
<rect width="511.741" height="568.949" fill="white" transform="translate(0 243.137) rotate(-11.5129)"/>
</clipPath>
<clipPath id="clip1_190_10">
<rect width="265" height="309" fill="white" transform="translate(975.388) rotate(31.486)"/>
</clipPath>
<clipPath id="clip2_190_10">
<rect width="336" height="326" fill="white" transform="translate(698 511)"/>
</clipPath>
</defs>
</svg>
