<svg width="1171" height="931" viewBox="0 0 1171 931" fill="none" xmlns="http://www.w3.org/2000/svg">
<g clip-path="url(#clip0_195_37)">
<path fill-rule="evenodd" clip-rule="evenodd" d="M345.407 4.37074C347.152 4.5898 348.784 5.17637 350.184 6.0881C351.584 6.99984 352.718 8.21398 353.504 9.64286L502.328 279.745C503.554 281.975 503.872 284.616 503.227 287.218C502.582 289.82 501.013 292.223 498.788 294.019L400.609 373.265C399.339 374.29 397.889 375.089 396.344 375.615L279.249 415.486L182.99 493.171C181.566 494.32 179.919 495.183 178.167 495.698C176.415 496.213 174.603 496.367 172.86 496.148C171.117 495.93 169.487 495.345 168.088 494.435C166.688 493.525 165.554 492.314 164.767 490.888L15.9435 220.786C14.7168 218.556 14.399 215.915 15.0443 213.313C15.6895 210.711 17.258 208.307 19.483 206.512L117.662 127.266C118.933 126.241 120.382 125.442 121.928 124.916L239.022 85.0448L335.281 7.35966C336.704 6.20914 338.35 5.34431 340.101 4.82747C341.852 4.31063 343.664 4.15464 345.407 4.37074ZM237.921 108.79L142.369 141.318L280.35 391.741L375.902 359.213L237.921 108.79ZM397.664 347.222L476.207 283.826L338.226 33.4022L259.683 96.7991L397.664 347.222ZM258.588 403.732L120.607 153.308L42.0639 216.705L180.045 467.129L258.588 403.732Z" fill="black"/>
</g>
<g clip-path="url(#clip1_195_37)">
<path d="M457.15 883.957C498.595 869.922 533.569 841.425 555.564 803.769C577.558 766.112 585.075 721.862 576.715 679.252C568.355 636.643 544.688 598.577 510.118 572.138C475.549 545.7 432.431 532.69 388.789 535.53C388.622 531.832 387.591 528.227 385.779 525C383.967 521.773 381.423 519.013 378.348 516.937C375.273 514.86 371.751 513.525 368.06 513.035C364.37 512.546 360.611 512.917 357.081 514.118L311.507 529.58C307.975 530.775 304.767 532.768 302.136 535.402C299.505 538.036 297.522 541.239 296.346 544.758C295.169 548.277 294.83 552.016 295.356 555.679C295.882 559.342 297.257 562.83 299.374 565.867C263.015 590.169 236.716 626.731 225.371 668.747C214.027 710.763 218.41 755.372 237.704 794.272C256.999 833.171 289.891 863.712 330.259 880.21C370.627 896.708 415.721 898.04 457.15 883.957ZM547.732 664.137C560.956 703.113 558.034 745.787 539.607 782.771C521.181 819.755 488.761 848.02 449.479 861.348C410.197 874.676 367.27 871.974 330.143 853.838C293.016 835.702 264.729 803.617 251.505 764.64C238.281 725.664 241.204 682.99 259.63 646.006C278.056 609.022 310.476 580.757 349.758 567.429C389.041 554.101 431.967 556.803 469.094 574.939C506.222 593.075 534.509 625.16 547.732 664.137Z" fill="black"/>
<path d="M367.211 698.256L458.296 596.003L431.781 729.797L340.718 832.042L367.211 698.256Z" fill="black"/>
</g>
<g clip-path="url(#clip2_195_37)">
<path d="M918.652 135.554C814.268 114.199 710.235 191.8 686.282 308.882C676.022 359.036 686.702 407.171 700.686 449.87L791.674 690.785C793.669 696.071 797.898 699.826 803.001 700.87C808.104 701.914 813.467 700.121 817.378 696.044L995.668 510.217C1022.94 483.016 1054.02 436.367 1064.28 386.213C1088.24 269.131 1023.04 156.909 918.652 135.554ZM974.862 505.96L974.784 505.944L808.422 674.371L721.57 454.142L721.491 454.126C708.626 418.999 691.553 363.327 702.032 312.104C723.988 204.783 819.356 133.646 915.038 153.22C1010.72 172.794 1070.49 275.669 1048.53 382.991C1038.05 434.214 997.957 481.061 974.862 505.96Z" fill="#231F20"/>
<path d="M893.353 259.217C849.859 250.319 806.511 282.661 796.533 331.437C786.554 380.213 813.719 426.98 857.212 435.878C900.706 444.776 944.054 412.434 954.033 363.658C964.011 314.882 936.847 268.115 893.353 259.217ZM860.826 418.212C826.034 411.094 804.299 373.684 812.283 334.659C820.266 295.635 854.947 269.765 889.739 276.883C924.531 284.001 946.266 321.412 938.283 360.436C930.299 399.46 895.618 425.33 860.826 418.212Z" fill="#231F20"/>
<path d="M900.581 223.884C839.692 211.428 779.004 256.695 765.032 324.992C751.06 393.29 789.094 458.753 849.984 471.21C910.874 483.667 971.561 438.399 985.533 370.102C999.505 301.805 961.471 236.341 900.581 223.884ZM853.598 453.544C801.41 442.867 768.807 386.751 780.782 328.215C792.758 269.678 844.779 230.874 896.967 241.55C949.155 252.227 981.758 308.343 969.783 366.88C957.808 425.417 905.786 464.22 853.598 453.544Z" fill="#231F20"/>
</g>
<defs>
<clipPath id="clip0_195_37">
<rect width="397.546" height="352.444" fill="white" transform="translate(0 191.85) rotate(-28.8544)"/>
</clipPath>
<clipPath id="clip1_195_37">
<rect width="385" height="382" fill="white" transform="translate(152 583.697) rotate(-18.741)"/>
</clipPath>
<clipPath id="clip2_195_37">
<rect width="514.44" height="577.024" fill="white" transform="translate(666.651 84) rotate(11.5619)"/>
</clipPath>
</defs>
</svg>
